HIERARCHY
ROOT Hips
{
 OFFSET 0.000000 0.000000 0.000000
 CHANNELS 6 Xposition Yposition Zposition Yrotation Xrotation Zrotation
 JOINT Chest
 {
  OFFSET 0.000000 9.585900 0.002600
  CHANNELS 3 Yrotation Xrotation Zrotation
  JOINT Chest2
  {
   OFFSET 0.000000 9.601200 -0.005300
   CHANNELS 3 Yrotation Xrotation Zrotation
   JOINT Chest3
   {
    OFFSET 0.000000 9.561800 0.000000
    CHANNELS 3 Yrotation Xrotation Zrotation
    JOINT Chest4
    {
     OFFSET 0.000000 9.552100 0.000000
     CHANNELS 3 Yrotation Xrotation Zrotation
     JOINT Neck
     {
      OFFSET 0.000000 14.453000 0.000000
      CHANNELS 3 Yrotation Xrotation Zrotation
      JOINT Head
      {
       OFFSET 0.000000 8.936500 -0.011300
       CHANNELS 3 Yrotation Xrotation Zrotation
       End Site
       {
        OFFSET 0.000000 17.073600 -0.006000
       }
      }
     }
     JOINT RightCollar
     {
      OFFSET -2.921100 9.558500 0.000000
      CHANNELS 3 Yrotation Xrotation Zrotation
      JOINT RightShoulder
      {
       OFFSET -13.519700 0.000000 0.000000
       CHANNELS 3 Yrotation Xrotation Zrotation
       JOINT RightElbow
       {
        OFFSET 0.000000 -29.696600 0.000000
        CHANNELS 3 Yrotation Xrotation Zrotation
        JOINT RightWrist
        {
         OFFSET 0.000000 -24.004700 0.000000
         CHANNELS 3 Yrotation Xrotation Zrotation
         End Site
         {
          OFFSET 0.000000 -17.728500 0.000000
         }
        }
       }
      }
     }
     JOINT LeftCollar
     {
      OFFSET 2.921100 9.558500 0.000000
      CHANNELS 3 Yrotation Xrotation Zrotation
      JOINT LeftShoulder
      {
       OFFSET 13.519700 0.000000 0.000000
       CHANNELS 3 Yrotation Xrotation Zrotation
       JOINT LeftElbow
       {
        OFFSET 0.000000 -29.696600 0.000000
        CHANNELS 3 Yrotation Xrotation Zrotation
        JOINT LeftWrist
        {
         OFFSET 0.000000 -24.004700 0.000000
         CHANNELS 3 Yrotation Xrotation Zrotation
         End Site
         {
          OFFSET 0.000000 -17.728500 0.000000
         }
        }
       }
      }
     }
    }
   }
  }
 }
 JOINT RightHip
 {
  OFFSET -7.771700 -0.012900 -0.001300
  CHANNELS 3 Yrotation Xrotation Zrotation
  JOINT RightKnee
  {
   OFFSET 0.000000 -40.869800 0.001200
   CHANNELS 3 Yrotation Xrotation Zrotation
   JOINT RightAnkle
   {
    OFFSET 0.000000 -39.717900 0.002100
    CHANNELS 3 Yrotation Xrotation Zrotation
    JOINT RightToe
    {
     OFFSET 0.000000 -4.965400 11.033500
     CHANNELS 3 Yrotation Xrotation Zrotation
     End Site
     {
      OFFSET 0.000000 -1.423100 5.872300
     }
    }
   }
  }
 }
 JOINT LeftHip
 {
  OFFSET 7.771700 -0.012900 -0.001300
  CHANNELS 3 Yrotation Xrotation Zrotation
  JOINT LeftKnee
  {
   OFFSET 0.000000 -40.869800 0.001200
   CHANNELS 3 Yrotation Xrotation Zrotation
   JOINT LeftAnkle
   {
    OFFSET 0.000000 -39.717900 0.002100
    CHANNELS 3 Yrotation Xrotation Zrotation
    JOINT LeftToe
    {
     OFFSET 0.000000 -4.965400 11.033500
     CHANNELS 3 Yrotation Xrotation Zrotation
     End Site
     {
      OFFSET 0.000000 -1.423100 5.872300
     }
    }
   }
  }
 }
}
MOTION
Frames: 16
Frame Time: 0.008333
0.000000 85.388000 0.000000 0.000000 -5.767877 0.000000 0.000000 11.653817 0.000000 0.000000 -5.885947 0.000000 0.000000 -0.000000 0.000000 0.000000 -0.000000 0.000000 0.000000 12.528835 0.000000 0.000000 0.711642 0.000000 0.000000 -0.000000 0.000000 0.000000 0.000000 -90.000000 0.000000 -2.309062 0.000000 0.000000 2.309062 0.000000 0.000000 -0.000000 0.000000 0.000000 -0.000000 90.000000 0.000000 -2.309062 0.000000 0.000000 2.309062 0.000000 0.000000 8.520406 0.000000 0.000000 1.905762 0.000000 -0.000000 -4.658285 0.000000 0.000000 -0.000000 0.000000 0.000000 8.520406 0.000000 0.000000 1.905762 0.000000 -0.000000 -4.658285 0.000000 0.000000 -0.000000 0.000000
-97.467140 58.043733 93.263676 178.408309 -30.716249 -2.029978 3.316722 20.893526 2.460580 0.379577 2.759542 0.261222 0.654372 4.473136 0.443336 2.731484 17.848877 2.073048 1.704899 15.222005 2.674433 2.198220 -7.536426 4.367705 3.946002 -0.409516 -0.106414 13.965866 -26.378288 -11.640182 -96.050071 -65.277634 106.603383 4.641289 -21.049679 -57.138843 -9.118806 -1.918087 -3.518308 5.075708 -22.845787 -7.756872 74.703216 -53.001951 -89.182423 8.364099 -17.575856 26.141326 9.117475 -43.805262 -6.438371 -9.882905 69.345096 -11.535432 8.022815 19.518849 8.663892 -0.304102 -15.054938 2.456054 -5.799580 -42.555815 2.183983 27.593954 66.957881 24.271233 -17.443366 7.216844 0.827484 -0.007611 0.020220 -0.012727
-97.466003 58.046327 93.262430 178.399530 -30.700493 -2.045202 3.299883 20.908717 2.460438 0.377962 2.762184 0.261932 0.662228 4.466194 0.442182 2.710933 17.867621 2.079543 1.532587 15.167857 2.794957 1.830486 -7.631966 4.657099 3.996149 -0.384962 -0.114290 14.153719 -26.393240 -11.714610 -95.656560 -65.569497 106.443397 4.648456 -21.075951 -56.957248 -9.199700 -1.968756 -3.543578 4.796183 -22.707198 -7.959917 74.176136 -52.810269 -88.412594 8.395591 -17.416896 25.701653 9.113778 -43.817757 -6.433523 -9.880997 69.337967 -11.506183 8.026826 19.524665 8.649397 -0.304947 -15.056466 2.452521 -5.806664 -42.571372 2.212596 27.602240 66.964056 24.278812 -17.441433 7.215821 0.835156 -0.002696 0.027411 -0.010689
-97.463163 58.049678 93.260740 178.381001 -30.681611 -2.066335 3.286809 20.929369 2.471933 0.375585 2.766168 0.262715 0.667768 4.459641 0.437820 2.686823 17.891934 2.088618 1.362695 15.102626 2.907978 1.469393 -7.746940 4.932064 4.055801 -0.383422 -0.133285 14.335955 -26.381468 -11.797801 -95.525213 -65.762952 106.579829 4.613428 -21.087307 -56.739990 -9.260279 -2.044033 -3.563598 4.567685 -22.506548 -8.170755 73.810764 -52.779417 -87.922893 8.412064 -17.274642 25.306943 9.104216 -43.836982 -6.408245 -9.902424 69.327951 -11.495502 8.028995 19.536942 8.617190 -0.299374 -15.060406 2.456684 -5.815494 -42.589029 2.255999 27.605593 66.977181 24.283419 -17.436007 7.207689 0.846370 -0.006745 0.030036 -0.013655
-97.462813 58.053433 93.258709 178.367312 -30.657354 -2.074594 3.255971 20.954520 2.465080 0.372547 2.771229 0.263287 0.629199 4.504754 0.438868 2.696803 17.870501 2.083131 1.196298 15.027575 3.015128 1.116195 -7.879269 5.195353 4.122062 -0.402129 -0.162051 14.501284 -26.350786 -11.868107 -95.663722 -65.886753 106.995770 4.550181 -21.090599 -56.494996 -9.297444 -2.139716 -3.573595 4.381643 -22.255999 -8.395426 73.588744 -52.864723 -87.694602 8.405021 -17.160180 24.973188 9.105591 -43.856932 -6.409111 -9.866625 69.322775 -11.444280 8.032075 19.539681 8.616105 -0.302559 -15.061571 2.448511 -5.812347 -42.611506 2.281533 27.590431 66.985415 24.268528 -17.434987 7.207810 0.856142 -0.008403 0.027725 -0.016131
-97.461350 58.057569 93.256723 178.349658 -30.627223 -2.086123 3.224299 20.977741 2.459984 0.368812 2.776764 0.263573 0.608824 4.529407 0.439633 2.682957 17.871759 2.077590 1.034892 14.947349 3.117294 0.773465 -8.020509 5.448185 4.203130 -0.455073 -0.196746 14.619277 -26.290926 -11.900605 -96.048843 -65.988854 107.655126 4.475555 -21.088663 -56.237437 -9.304455 -2.249920 -3.572965 4.221699 -21.965221 -8.634791 73.498311 -53.014878 -87.708566 8.374618 -17.072219 24.675540 9.096872 -43.885658 -6.397291 -9.851575 69.318193 -11.410218 8.026547 19.547590 8.604386 -0.296346 -15.065261 2.438042 -5.810693 -42.636931 2.317100 27.569444 66.990462 24.246651 -17.432120 7.207420 0.865501 -0.013022 0.027583 -0.017290
-97.459897 58.062031 93.254698 178.339271 -30.592099 -2.099303 3.178460 20.995537 2.449506 0.364301 2.782155 0.263708 0.601448 4.537803 0.439693 2.650794 17.889013 2.072724 0.879210 14.867247 3.213743 0.443087 -8.160824 5.688771 4.294704 -0.507704 -0.236128 14.686621 -26.236663 -11.890749 -96.646461 -66.121863 108.508211 4.399194 -21.080022 -55.978209 -9.279132 -2.365533 -3.567401 4.084729 -21.646182 -8.889101 73.518189 -53.197729 -87.942915 8.324387 -17.003453 24.379672 9.073415 -43.920697 -6.382051 -9.832815 69.315536 -11.377798 8.026108 19.554653 8.582614 -0.297977 -15.069865 2.437083 -5.820245 -42.668583 2.347393 27.566212 66.991725 24.243026 -17.428657 7.209101 0.870719 0.002046 0.032662 -0.011903
-97.458673 58.066885 93.252360 178.322837 -30.555305 -2.105808 3.131196 21.008593 2.432170 0.393974 2.761299 0.268090 0.558675 4.570298 0.436821 2.616641 17.904393 2.066395 0.727683 14.791656 3.306064 0.121766 -8.292143 5.920483 4.340463 -0.485472 -0.296938 14.754549 -26.264479 -11.836001 -97.434686 -66.320715 109.509225 4.330511 -21.069055 -55.738109 -9.228359 -2.477860 -3.562764 3.974990 -21.313241 -9.149854 73.620429 -53.408592 -88.363176 8.255263 -16.947874 24.071918 9.016176 -43.960515 -6.348356 -9.770889 69.311411 -11.330778 8.032647 19.566853 8.563640 -0.295761 -15.078000 2.432282 -5.821831 -42.702638 2.372705 27.564318 66.992508 24.241027 -17.435295 7.213073 0.879045 0.000691 0.030209 -0.014635
-97.454935 58.071614 93.250767 178.291733 -30.511713 -2.118049 3.101675 21.009679 2.426627 0.371814 2.777557 0.266082 0.568299 4.562302 0.436962 2.583501 17.915976 2.059363 0.578247 14.724067 3.396615 -0.194990 -8.407902 6.148293 4.414947 -0.509340 -0.342310 14.746408 -26.246694 -11.743270 -98.392053 -66.590474 110.619238 4.276831 -21.067333 -55.537732 -9.161789 -2.582924 -3.560178 3.887130 -20.979785 -9.403368 73.786888 -53.656325 -88.921172 8.173392 -16.905584 23.758576 8.979773 -44.007127 -6.301925 -9.759861 69.300390 -11.321774 8.034149 19.583203 8.539207 -0.291985 -15.085299 2.432662 -5.818783 -42.740841 2.417667 27.555418 66.999192 24.230916 -17.437096 7.207113 0.892231 -0.001729 0.032157 -0.017058
-97.451671 58.077111 93.247838 178.264826 -30.474995 -2.127754 3.100236 20.993272 2.432856 0.321926 2.808645 0.258196 0.577990 4.551967 0.437963 2.601879 17.903306 2.056087 0.385443 14.684895 3.498114 -0.507777 -8.502006 6.373302 4.412717 -0.491713 -0.374148 14.721265 -26.255702 -11.620840 -99.474717 -66.911951 111.789006 4.240691 -21.082104 -55.379282 -9.136061 -2.657636 -3.548034 3.816848 -20.660257 -9.642196 74.005048 -53.948882 -89.566470 8.090684 -16.873812 23.449145 8.935500 -44.045402 -6.253999 -9.758899 69.289173 -11.328525 8.036222 19.598372 8.515109 -0.281890 -15.092910 2.431443 -5.814480 -42.771294 2.454853 27.547645 67.008336 24.217969 -17.427358 7.197231 0.909436 -0.010103 0.033845 -0.019895
-97.448090 58.082866 93.244268 178.251827 -30.440974 -2.145195 3.088838 20.978013 2.440778 0.320473 2.806960 0.258265 0.574218 4.552110 0.437494 2.583798 17.909905 2.052476 0.201284 14.644817 3.596937 -0.817922 -8.569349 6.596007 4.385501 -0.460908 -0.406111 14.685039 -26.292999 -11.480043 -100.623086 -67.251381 112.963541 4.224619 -21.112380 -55.263954 -9.102434 -2.727749 -3.532642 3.770041 -20.372434 -9.860293 74.255186 -54.277935 -90.257945 8.014851 -16.850318 23.149995 8.871565 -44.080486 -6.205966 -9.873178 69.273029 -11.430455 8.069404 19.612018 8.468043 -0.274173 -15.099347 2.436430 -5.822061 -42.796836 2.489046 27.531477 67.006334 24.206225 -17.424007 7.195267 0.911528 -0.010995 0.034388 -0.019090
-97.445049 58.088691 93.240007 178.232790 -30.410936 -2.155643 3.006056 20.999290 2.405370 0.392270 2.773251 0.270788 0.570680 4.551368 0.437037 2.463104 17.923214 2.041734 0.118099 14.598809 3.668580 -1.128616 -8.608505 6.818693 4.498056 -0.460222 -0.449837 14.572682 -26.312766 -11.338344 -101.775747 -67.567452 114.094608 4.230936 -21.151503 -55.198840 -8.963154 -2.794963 -3.536902 3.747873 -20.132064 -10.051113 74.517248 -54.621201 -90.966202 7.942583 -16.838878 22.871925 8.842287 -44.110414 -6.172196 -9.940678 69.262953 -11.490528 8.089795 19.620497 8.442918 -0.275320 -15.104823 2.440184 -5.825900 -42.820207 2.520204 27.516598 67.013366 24.192778 -17.417734 7.185022 0.916591 -0.015021 0.037486 -0.018560
-97.445163 58.093086 93.237081 178.209022 -30.370453 -2.144969 2.978619 20.971236 2.378328 0.385530 2.778715 0.272604 0.536789 4.545653 0.432179 2.459993 17.900728 2.038618 -0.011718 14.583471 3.752982 -1.441589 -8.622663 7.044225 4.493561 -0.403670 -0.483010 14.481384 -26.367388 -11.203702 -102.864735 -67.828643 115.124625 4.258047 -21.193595 -55.177718 -8.880312 -2.801034 -3.545171 3.739621 -19.960920 -10.190741 74.784054 -54.957012 -91.672544 7.873630 -16.833378 22.621047 8.834582 -44.146270 -6.166514 -10.000384 69.249323 -11.542219 8.089665 19.646735 8.401336 -0.278004 -15.121952 2.458105 -5.810384 -42.855786 2.528039 27.497095 67.019537 24.174533 -17.399760 7.155781 0.919245 -0.018142 0.058674 -0.016037
-97.439068 58.099259 93.230773 178.201532 -30.355284 -2.179182 2.958785 20.959321 2.394596 0.373703 2.780437 0.270741 0.560052 4.539036 0.436350 2.458155 17.890673 2.038568 -0.180672 14.560005 3.849808 -1.756263 -8.616821 7.271255 4.436148 -0.359005 -0.503315 14.364612 -26.426238 -11.084684 -103.834303 -68.027876 115.995198 4.295206 -21.238173 -55.183074 -8.850273 -2.823441 -3.514293 3.756019 -19.820714 -10.311688 75.053728 -55.272514 -92.356904 7.815081 -16.820060 22.392325 8.742732 -44.161105 -6.080805 -9.986774 69.238832 -11.551908 8.094374 19.637231 8.400922 -0.283457 -15.111358 2.442119 -5.840082 -42.862523 2.582170 27.484138 67.026690 24.161278 -17.390626 7.146645 0.913009 -0.010181 0.057050 -0.006006
-97.437389 58.104823 93.223890 178.194796 -30.343268 -2.187515 2.949938 20.947376 2.395631 0.354875 2.777721 0.265999 0.557107 4.528746 0.436375 2.445574 17.855346 2.040609 -0.318991 14.570880 3.937025 -2.069323 -8.596926 7.496373 4.422745 -0.291881 -0.523527 14.224560 -26.477962 -10.993553 -104.653592 -68.170092 116.667911 4.330927 -21.283015 -55.205413 -8.796333 -2.807037 -3.497211 3.780078 -19.731891 -10.388131 75.319024 -55.556440 -92.994276 7.764406 -16.796671 22.188705 8.619768 -44.163407 -6.009399 -9.887011 69.221881 -11.506385 8.107483 19.629900 8.387837 -0.298766 -15.103657 2.437296 -5.845889 -42.869543 2.598665 27.474960 67.035359 24.157524 -17.387110 7.127665 0.904420 -0.018988 0.059894 0.000444
-97.434072 58.109046 93.218274 178.160532 -30.325125 -2.192113 2.967975 20.926022 2.407196 0.308189 2.754631 0.256570 0.554662 4.505132 0.436418 2.470730 17.848285 2.046184 -0.457052 14.587498 4.022489 -2.376764 -8.571869 7.717297 4.405546 -0.227316 -0.541565 14.096616 -26.526548 -10.934451 -105.296340 -68.256674 117.115661 4.364483 -21.321803 -55.245909 -8.752506 -2.764579 -3.503262 3.793782 -19.701258 -10.409293 75.582772 -55.805015 -93.579683 7.718996 -16.767535 22.020546 8.603886 -44.182051 -5.975814 -9.953481 69.212828 -11.559480 8.131355 19.631767 8.359090 -0.306362 -15.103226 2.443413 -5.837073 -42.880444 2.622744 27.493956 67.042338 24.181903 -17.371548 7.100150 0.903997 -0.036148 0.064347 0.001453
